<svg id="visual" viewBox="0 0 900 450" width="900" height="450" xmlns="http://www.w3.org/2000/svg" xmlns:xlink="http://www.w3.org/1999/xlink" version="1.1"><rect x="0" y="0" width="900" height="450" fill="#e2e4d0"></rect><defs><linearGradient id="grad1_0" x1="50%" y1="100%" x2="100%" y2="0%"><stop offset="10%" stop-color="#557153" stop-opacity="1"></stop><stop offset="90%" stop-color="#557153" stop-opacity="1"></stop></linearGradient></defs><defs><linearGradient id="grad1_1" x1="50%" y1="100%" x2="100%" y2="0%"><stop offset="10%" stop-color="#557153" stop-opacity="1"></stop><stop offset="90%" stop-color="#9ca88d" stop-opacity="1"></stop></linearGradient></defs><defs><linearGradient id="grad1_2" x1="50%" y1="100%" x2="100%" y2="0%"><stop offset="10%" stop-color="#e2e4d0" stop-opacity="1"></stop><stop offset="90%" stop-color="#9ca88d" stop-opacity="1"></stop></linearGradient></defs><defs><linearGradient id="grad2_0" x1="0%" y1="100%" x2="50%" y2="0%"><stop offset="10%" stop-color="#557153" stop-opacity="1"></stop><stop offset="90%" stop-color="#557153" stop-opacity="1"></stop></linearGradient></defs><defs><linearGradient id="grad2_1" x1="0%" y1="100%" x2="50%" y2="0%"><stop offset="10%" stop-color="#9ca88d" stop-opacity="1"></stop><stop offset="90%" stop-color="#557153" stop-opacity="1"></stop></linearGradient></defs><defs><linearGradient id="grad2_2" x1="0%" y1="100%" x2="50%" y2="0%"><stop offset="10%" stop-color="#9ca88d" stop-opacity="1"></stop><stop offset="90%" stop-color="#e2e4d0" stop-opacity="1"></stop></linearGradient></defs><g transform="translate(900, 450)"><path d="M-225 0C-221.8 -29.6 -218.5 -59.1 -207.9 -86.1C-197.2 -113.1 -179.1 -137.5 -157.7 -157.7C-136.2 -177.8 -111.4 -193.7 -84.6 -204.2C-57.7 -214.7 -28.9 -219.8 0 -225L0 0Z" fill="#bfc6ad"></path><path d="M-150 0C-147.8 -19.7 -145.7 -39.4 -138.6 -57.4C-131.5 -75.4 -119.4 -91.7 -105.1 -105.1C-90.8 -118.6 -74.3 -129.1 -56.4 -136.1C-38.5 -143.1 -19.2 -146.6 0 -150L0 0Z" fill="#788c6f"></path><path d="M-75 0C-73.9 -9.9 -72.8 -19.7 -69.3 -28.7C-65.7 -37.7 -59.7 -45.8 -52.6 -52.6C-45.4 -59.3 -37.1 -64.6 -28.2 -68.1C-19.2 -71.6 -9.6 -73.3 0 -75L0 0Z" fill="#557153"></path></g><g transform="translate(0, 0)"><path d="M225 0C217.8 28.5 210.6 57.1 198.6 82.3C186.7 107.5 170.1 129.3 151.3 151.3C132.6 173.3 111.7 195.6 86.1 207.9C60.5 220.2 30.3 222.6 0 225L0 0Z" fill="#bfc6ad"></path><path d="M150 0C145.2 19 140.4 38.1 132.4 54.9C124.5 71.6 113.4 86.2 100.9 100.9C88.4 115.6 74.5 130.4 57.4 138.6C40.4 146.8 20.2 148.4 0 150L0 0Z" fill="#788c6f"></path><path d="M75 0C72.6 9.5 70.2 19 66.2 27.4C62.2 35.8 56.7 43.1 50.4 50.4C44.2 57.8 37.2 65.2 28.7 69.3C20.2 73.4 10.1 74.2 0 75L0 0Z" fill="#557153"></path></g></svg>